<svg width="170" height="34" viewBox="0 0 170 34" fill="none" xmlns="http://www.w3.org/2000/svg">
<path d="M2.35806 28V10.1043H7.5246C14.1221 10.1043 17.4209 13.012 17.4209 18.8275C17.4209 21.5897 16.5057 23.811 14.6754 25.4916C12.8451 27.1639 10.3907 28 7.31245 28H2.35806ZM5.31572 12.6252V25.4916H7.68684C9.77509 25.4916 11.3974 24.9175 12.5539 23.7694C13.7186 22.6213 14.301 20.999 14.301 18.9024C14.301 14.7176 12.1337 12.6252 7.79915 12.6252H5.31572ZM28.0785 28.2995C25.4994 28.2995 23.4319 27.4634 21.8761 25.7911C20.3287 24.1188 19.5549 21.9432 19.5549 19.2643C19.5549 16.3857 20.3453 14.0894 21.926 12.3756C23.5068 10.6617 25.6533 9.80477 28.3655 9.80477C30.8781 9.80477 32.8998 10.6367 34.4306 12.3007C35.9697 13.9646 36.7393 16.1402 36.7393 18.8275C36.7393 21.7477 35.9531 24.0565 34.3807 25.7537C32.8082 27.4509 30.7075 28.2995 28.0785 28.2995ZM28.2158 12.413C26.5768 12.413 25.2415 13.0245 24.2098 14.2475C23.1865 15.4705 22.6748 17.0804 22.6748 19.0771C22.6748 21.0655 23.174 22.6671 24.1724 23.8817C25.1707 25.0964 26.4769 25.7038 28.091 25.7038C29.8048 25.7038 31.1568 25.1255 32.1468 23.9691C33.1369 22.8127 33.6319 21.1945 33.6319 19.1145C33.6319 16.9764 33.1493 15.3249 32.1843 14.1601C31.2275 12.9954 29.9047 12.413 28.2158 12.413ZM59.24 28H56.2948V16.4189C56.2948 15.4705 56.3531 14.3099 56.4695 12.9371H56.4196C56.2366 13.7192 56.0743 14.2808 55.9329 14.6219L50.5916 28H48.545L43.1913 14.7217C43.0415 14.3307 42.8834 13.7358 42.717 12.9371H42.6671C42.7337 13.6526 42.7669 14.8216 42.7669 16.4439V28H40.0214V10.1043H44.2021L48.9069 22.0223C49.2647 22.9374 49.4976 23.6197 49.6058 24.0689H49.6682C49.976 23.1288 50.2256 22.4299 50.4169 21.9724L55.2091 10.1043H59.24V28ZM73.7038 28H63.6578V10.1043H73.3045V12.6252H66.6279V17.6919H72.7803V20.2003H66.6279V25.4916H73.7038V28ZM79.9312 28H76.8737V10.1043H79.9312V28ZM99.5241 28H96.2794L87.7309 14.8465C87.5146 14.5137 87.3357 14.1685 87.1943 13.8107H87.1194C87.1859 14.1934 87.2192 15.0129 87.2192 16.2692V28H84.3489V10.1043H87.8058L96.0673 22.9458C96.4167 23.4782 96.6413 23.8443 96.7412 24.044H96.7911C96.7079 23.5697 96.6663 22.7669 96.6663 21.6354V10.1043H99.5241V28ZM107.012 28H103.954V10.1043H107.012V28ZM123.909 27.2512C122.561 27.9501 120.885 28.2995 118.88 28.2995C116.284 28.2995 114.204 27.48 112.64 25.841C111.076 24.202 110.294 22.0514 110.294 19.3891C110.294 16.5271 111.172 14.2142 112.927 12.4504C114.691 10.6867 116.916 9.80477 119.604 9.80477C121.334 9.80477 122.769 10.0502 123.909 10.5411V13.4862C122.703 12.7707 121.372 12.413 119.916 12.413C117.977 12.413 116.405 13.0328 115.198 14.2725C114 15.5121 113.401 17.1677 113.401 19.2393C113.401 21.2111 113.963 22.7835 115.086 23.9566C116.209 25.1214 117.686 25.7038 119.516 25.7038C121.205 25.7038 122.67 25.3044 123.909 24.5057V27.2512ZM142.005 28H138.747L137.138 23.445H130.099L128.552 28H125.307L132.008 10.1043H135.353L142.005 28ZM136.351 21.0239L133.868 13.8856C133.793 13.6526 133.714 13.2783 133.631 12.7624H133.581C133.506 13.2367 133.423 13.611 133.331 13.8856L130.873 21.0239H136.351Z" fill="white"/>
<path fill-rule="evenodd" clip-rule="evenodd" d="M154.492 6.60957C152.982 6.60957 151.533 7.20973 150.464 8.27804L146.227 12.5155H163.945V30.2333L168.182 25.9959C169.25 24.9276 169.851 23.4786 169.851 21.9678V12.5155V6.60957H154.492ZM149.343 30.2333H160.167V19.1698L149.343 30.2333ZM157.05 16.1908H146.227V27.2544L157.05 16.1908Z" fill="url(#paint0_linear_222_2978)"/>
<defs>
<linearGradient id="paint0_linear_222_2978" x1="164.586" y1="10.9293" x2="154.191" y2="21.3238" gradientUnits="userSpaceOnUse">
<stop stop-color="#FF7D34"/>
<stop offset="1" stop-color="#C70012"/>
</linearGradient>
</defs>
</svg>
