<svg width="220" height="35" viewBox="0 0 220 35" fill="none" xmlns="http://www.w3.org/2000/svg">
<path d="M2.42319 28V9.51673H7.52736C14.0408 9.51673 17.2975 12.5199 17.2975 18.5264C17.2975 21.3792 16.3909 23.6735 14.5778 25.4092C12.7733 27.1364 10.3544 28 7.32113 28H2.42319ZM4.58859 11.4759V26.0408H7.34691C9.7701 26.0408 11.6562 25.3921 13.0053 24.0945C14.3544 22.797 15.0289 20.9581 15.0289 18.5779C15.0289 13.8432 12.5112 11.4759 7.4758 11.4759H4.58859ZM28.3823 28.3093C25.7614 28.3093 23.6605 27.4458 22.0794 25.7186C20.5069 23.9914 19.7206 21.7444 19.7206 18.9775C19.7206 16.0043 20.5241 13.6327 22.1309 11.8626C23.7378 10.0925 25.9247 9.20739 28.6916 9.20739C31.2437 9.20739 33.2974 10.0667 34.8527 11.7852C36.4166 13.5038 37.1985 15.7509 37.1985 18.5264C37.1985 21.5425 36.3994 23.927 34.8011 25.6799C33.2029 27.4329 31.0632 28.3093 28.3823 28.3093ZM28.5369 11.1666C26.5949 11.1666 25.0181 11.8669 23.8066 13.2675C22.595 14.6682 21.9892 16.507 21.9892 18.7841C21.9892 21.0613 22.5778 22.8958 23.755 24.2879C24.9408 25.6713 26.4832 26.3631 28.3823 26.3631C30.4102 26.3631 32.0085 25.7014 33.1771 24.3781C34.3457 23.0548 34.93 21.203 34.93 18.8228C34.93 16.3824 34.3629 14.4963 33.2286 13.1644C32.0944 11.8325 30.5305 11.1666 28.5369 11.1666ZM59.6775 28H57.525V15.6005C57.525 14.6209 57.5851 13.4222 57.7054 12.0044H57.6539C57.4477 12.8379 57.2629 13.4351 57.0996 13.796L50.7839 28H49.727L43.4241 13.8991C43.2436 13.4866 43.0589 12.8551 42.8698 12.0044H42.8183C42.887 12.7434 42.9214 13.9507 42.9214 15.6263V28H40.8333V9.51673H43.6948L49.3661 22.406C49.8043 23.3942 50.0879 24.1332 50.2167 24.623H50.2941C50.6636 23.609 50.96 22.8529 51.1834 22.3545L56.9707 9.51673H59.6775V28ZM78.8568 28H76.4594L74.5002 22.8185H66.6635L64.8203 28H62.41L69.4992 9.51673H71.7419L78.8568 28ZM73.7913 20.8722L70.8912 12.9968C70.7967 12.7391 70.7022 12.3266 70.6076 11.7595H70.5561C70.4702 12.2836 70.3713 12.6961 70.2596 12.9968L67.3853 20.8722H73.7913ZM83.7547 28H81.5893V9.51673H83.7547V28ZM103.527 28H100.872L91.3594 13.2675C91.1188 12.898 90.9212 12.5113 90.7665 12.1075H90.6892C90.7579 12.5028 90.7923 13.3492 90.7923 14.6467V28H88.6269V9.51673H91.4368L100.691 24.0172C101.078 24.6187 101.327 25.0312 101.439 25.2546H101.49C101.404 24.7218 101.362 23.8153 101.362 22.5349V9.51673H103.527V28Z" fill="white"/>
<path d="M153.56 27.2524V24.7003C153.852 24.9581 154.2 25.1901 154.604 25.3964C155.016 25.6026 155.446 25.7787 155.893 25.9248C156.348 26.0623 156.803 26.1697 157.259 26.2471C157.714 26.3244 158.135 26.3631 158.522 26.3631C159.854 26.3631 160.846 26.1182 161.499 25.6284C162.161 25.13 162.492 24.4168 162.492 23.4887C162.492 22.9904 162.38 22.5564 162.157 22.1869C161.942 21.8174 161.641 21.4823 161.255 21.1816C160.868 20.8722 160.408 20.5801 159.875 20.3051C159.351 20.0215 158.784 19.7251 158.174 19.4157C157.53 19.0892 156.928 18.7584 156.369 18.4232C155.811 18.0881 155.325 17.7186 154.913 17.3148C154.501 16.9109 154.174 16.4555 153.933 15.9485C153.701 15.4329 153.585 14.8314 153.585 14.144C153.585 13.3019 153.77 12.5715 154.14 11.9528C154.509 11.3255 154.995 10.81 155.596 10.4061C156.198 10.0022 156.881 9.70148 157.646 9.50384C158.419 9.3062 159.205 9.20739 160.004 9.20739C161.826 9.20739 163.154 9.4265 163.987 9.86474V12.3008C162.896 11.5446 161.495 11.1666 159.785 11.1666C159.313 11.1666 158.84 11.2181 158.367 11.3212C157.895 11.4158 157.474 11.5747 157.104 11.7981C156.735 12.0216 156.434 12.3094 156.202 12.6617C155.97 13.014 155.854 13.4437 155.854 13.9507C155.854 14.4233 155.94 14.8314 156.112 15.1751C156.292 15.5189 156.554 15.8325 156.898 16.1161C157.242 16.3996 157.658 16.6746 158.148 16.941C158.647 17.2074 159.218 17.4995 159.862 17.8174C160.524 18.144 161.151 18.4877 161.744 18.8486C162.337 19.2095 162.857 19.6091 163.304 20.0473C163.751 20.4855 164.103 20.971 164.361 21.5038C164.627 22.0365 164.76 22.6466 164.76 23.3341C164.76 24.2449 164.58 25.0183 164.219 25.6541C163.867 26.2814 163.386 26.7927 162.775 27.188C162.174 27.5832 161.478 27.8668 160.687 28.0387C159.897 28.2191 159.063 28.3093 158.187 28.3093C157.895 28.3093 157.534 28.2836 157.104 28.232C156.675 28.189 156.236 28.1203 155.789 28.0258C155.343 27.9398 154.917 27.8324 154.513 27.7035C154.118 27.5661 153.8 27.4157 153.56 27.2524ZM182.341 28H180.176V19.5704H170.612V28H168.447V9.51673H170.612V17.6241H180.176V9.51673H182.341V28ZM194.638 28.3093C192.017 28.3093 189.916 27.4458 188.335 25.7186C186.762 23.9914 185.976 21.7444 185.976 18.9775C185.976 16.0043 186.78 13.6327 188.387 11.8626C189.993 10.0925 192.18 9.20739 194.947 9.20739C197.499 9.20739 199.553 10.0667 201.108 11.7852C202.672 13.5038 203.454 15.7509 203.454 18.5264C203.454 21.5425 202.655 23.927 201.057 25.6799C199.458 27.4329 197.319 28.3093 194.638 28.3093ZM194.793 11.1666C192.851 11.1666 191.274 11.8669 190.062 13.2675C188.851 14.6682 188.245 16.507 188.245 18.7841C188.245 21.0613 188.833 22.8958 190.011 24.2879C191.196 25.6713 192.739 26.3631 194.638 26.3631C196.666 26.3631 198.264 25.7014 199.433 24.3781C200.601 23.0548 201.186 21.203 201.186 18.8228C201.186 16.3824 200.618 14.4963 199.484 13.1644C198.35 11.8325 196.786 11.1666 194.793 11.1666ZM209.254 21.014V28H207.089V9.51673H212.167C214.144 9.51673 215.673 9.99793 216.756 10.9603C217.847 11.9227 218.393 13.2804 218.393 15.0334C218.393 16.7863 217.787 18.2213 216.575 19.3384C215.372 20.4555 213.744 21.014 211.69 21.014H209.254ZM209.254 11.4759V19.0548H211.523C213.018 19.0548 214.157 18.7154 214.938 18.0366C215.729 17.3491 216.124 16.3824 216.124 15.1365C216.124 12.6961 214.681 11.4759 211.794 11.4759H209.254Z" fill="white"/>
<path d="M134.895 4.00028C132.97 3.98343 131.116 4.729 129.734 6.07356L129.72 6.08685L128.684 7.12433C128.173 7.63556 128.174 8.46395 128.685 8.97459C129.196 9.48523 130.025 9.48476 130.535 8.97353L131.565 7.94315C132.454 7.08128 133.642 6.60609 134.872 6.61686C136.106 6.62766 137.288 7.12592 138.163 8.00726C139.039 8.88888 139.537 10.0834 139.548 11.334C139.559 12.581 139.084 13.7809 138.228 14.677L134.622 18.3089C134.143 18.791 133.568 19.1632 132.935 19.401C132.302 19.6387 131.626 19.7366 130.953 19.6879C130.28 19.6393 129.624 19.4456 129.031 19.1193C128.438 18.793 127.921 18.3416 127.515 17.7952C127.084 17.2151 126.265 17.0942 125.685 17.5251C125.104 17.9559 124.984 18.7754 125.414 19.3556C126.044 20.2025 126.847 20.904 127.77 21.4119C128.693 21.9198 129.714 22.2221 130.765 22.2979C131.815 22.3736 132.869 22.221 133.855 21.8506C134.841 21.4802 135.736 20.9007 136.479 20.1523L140.093 16.5123L140.109 16.4959C141.444 15.1044 142.181 13.2424 142.164 11.3114C142.148 9.3805 141.379 7.53161 140.02 6.16346C138.661 4.795 136.821 4.01713 134.895 4.00028Z" fill="white"/>
<path d="M127.4 11.8685C126.35 11.7928 125.296 11.9454 124.31 12.3158C123.324 12.6862 122.429 13.2656 121.686 14.014L118.071 17.654L118.055 17.6704C116.721 19.0619 115.984 20.924 116 22.8549C116.017 24.7858 116.786 26.6347 118.145 28.0029C119.504 29.3714 121.344 30.1492 123.269 30.1661C125.195 30.1829 127.049 29.4373 128.431 28.0927L128.447 28.0768L129.477 27.0393C129.987 26.5265 129.984 25.6982 129.471 25.189C128.958 24.6799 128.13 24.6828 127.621 25.1956L126.599 26.2244C125.71 27.0855 124.523 27.5603 123.292 27.5495C122.059 27.5387 120.877 27.0404 120.001 26.159C119.126 25.2775 118.628 24.083 118.617 22.8323C118.606 21.5852 119.081 20.3855 119.936 19.4894L123.543 15.8574C124.022 15.3753 124.597 15.0031 125.23 14.7654C125.863 14.5276 126.539 14.4298 127.212 14.4784C127.885 14.527 128.54 14.7208 129.133 15.0471C129.727 15.3734 130.244 15.8247 130.65 16.3711C131.081 16.9512 131.9 17.0721 132.48 16.6413C133.06 16.2104 133.181 15.3909 132.75 14.8108C132.121 13.9639 131.318 13.2624 130.395 12.7545C129.472 12.2465 128.45 11.9442 127.4 11.8685Z" fill="white"/>
</svg>
