<svg width="50" height="50" viewBox="0 0 50 50" fill="none" xmlns="http://www.w3.org/2000/svg">
<circle cx="25" cy="25" r="25" fill="url(#paint0_linear_463_1468)"/>
<g clip-path="url(#clip0_463_1468)">
<path d="M32.6223 24.2001L23.4939 15.0718C23.2827 14.8605 23.0009 14.7441 22.7004 14.7441C22.3999 14.7441 22.118 14.8605 21.9069 15.0718L21.2346 15.7439C20.7972 16.1819 20.7972 16.8936 21.2346 17.3309L28.9 24.9963L21.2261 32.6702C21.015 32.8815 20.8984 33.1632 20.8984 33.4635C20.8984 33.7642 21.015 34.0459 21.2261 34.2573L21.8984 34.9293C22.1097 35.1406 22.3914 35.257 22.6919 35.257C22.9924 35.257 23.2742 35.1406 23.4854 34.9293L32.6223 25.7926C32.834 25.5807 32.9502 25.2977 32.9495 24.9968C32.9502 24.6948 32.834 24.4119 32.6223 24.2001Z" fill="white"/>
</g>
<defs>
<linearGradient id="paint0_linear_463_1468" x1="38.8571" y1="9.14286" x2="16.8571" y2="31.1429" gradientUnits="userSpaceOnUse">
<stop stop-color="#FF7D34"/>
<stop offset="1" stop-color="#C70012"/>
</linearGradient>
<clipPath id="clip0_463_1468">
<rect width="20.5128" height="20.5128" fill="white" transform="translate(16.6641 14.7441)"/>
</clipPath>
</defs>
</svg>
