<svg width="78" height="78" viewBox="0 0 78 78" fill="none" xmlns="http://www.w3.org/2000/svg">
<circle cx="39" cy="39" r="39" fill="url(#paint0_linear_463_1468)"/>
<g clip-path="url(#clip0_463_1468)">
<path d="M50.8908 37.7533L36.6504 23.5132C36.3211 23.1835 35.8814 23.002 35.4126 23.002C34.9438 23.002 34.5041 23.1835 34.1748 23.5132L33.126 24.5616C32.4436 25.2448 32.4436 26.3552 33.126 27.0373L45.0841 38.9953L33.1128 50.9666C32.7834 51.2962 32.6016 51.7356 32.6016 52.2042C32.6016 52.6733 32.7834 53.1127 33.1128 53.4426L34.1615 54.4907C34.4911 54.8204 34.9305 55.002 35.3993 55.002C35.8681 55.002 36.3078 54.8204 36.6372 54.4907L50.8908 40.2376C51.221 39.9069 51.4023 39.4654 51.4013 38.9961C51.4023 38.525 51.221 38.0837 50.8908 37.7533Z" fill="white"/>
</g>
<defs>
<linearGradient id="paint0_linear_463_1468" x1="60.6171" y1="14.2629" x2="26.2971" y2="48.5829" gradientUnits="userSpaceOnUse">
<stop stop-color="#FF7D34"/>
<stop offset="1" stop-color="#C70012"/>
</linearGradient>
<clipPath id="clip0_463_1468">
<rect width="32" height="32" fill="white" transform="translate(26 23.002)"/>
</clipPath>
</defs>
</svg>
