<svg width="50" height="50" viewBox="0 0 50 50" fill="none" xmlns="http://www.w3.org/2000/svg">
<circle cx="25" cy="25" r="25" fill="url(#paint0_linear_463_1462)"/>
<g clip-path="url(#clip0_463_1462)">
<path d="M17.3777 25.7999L26.5061 34.9282C26.7173 35.1395 26.9991 35.2559 27.2996 35.2559C27.6001 35.2559 27.882 35.1395 28.0931 34.9282L28.7654 34.2561C29.2028 33.8181 29.2028 33.1064 28.7654 32.6691L21.1 25.0037L28.7739 17.3298C28.985 17.1185 29.1016 16.8368 29.1016 16.5365C29.1016 16.2358 28.985 15.9541 28.7739 15.7427L28.1016 15.0707C27.8903 14.8594 27.6086 14.743 27.3081 14.743C27.0076 14.743 26.7258 14.8594 26.5146 15.0707L17.3777 24.2074C17.166 24.4193 17.0498 24.7023 17.0505 25.0032C17.0498 25.3052 17.166 25.5881 17.3777 25.7999Z" fill="white"/>
</g>
<defs>
<linearGradient id="paint0_linear_463_1462" x1="38.8571" y1="9.14286" x2="16.8571" y2="31.1429" gradientUnits="userSpaceOnUse">
<stop stop-color="#FF7D34"/>
<stop offset="1" stop-color="#C70012"/>
</linearGradient>
<clipPath id="clip0_463_1462">
<rect width="20.5128" height="20.5128" fill="white" transform="matrix(-1 0 0 -1 33.3359 35.2559)"/>
</clipPath>
</defs>
</svg>
